<svg width="1037" height="746" viewBox="0 0 1037 746" fill="none" xmlns="http://www.w3.org/2000/svg">
<rect width="1036.55" height="746" fill="#3F3F3F"/>
<path d="M436.52 341.445V365H435.324L420.031 348.16V365H416.867V341.445H418.062L433.355 358.496V341.445H436.52ZM451.32 347.07C453.102 347.07 454.684 347.492 456.066 348.336C457.449 349.18 458.527 350.305 459.301 351.711C460.098 353.117 460.496 354.652 460.496 356.316C460.496 357.98 460.098 359.516 459.301 360.922C458.527 362.305 457.449 363.418 456.066 364.262C454.684 365.105 453.102 365.527 451.32 365.527C449.539 365.527 447.957 365.105 446.574 364.262C445.191 363.418 444.102 362.305 443.305 360.922C442.531 359.516 442.145 357.98 442.145 356.316C442.145 354.652 442.531 353.117 443.305 351.711C444.102 350.305 445.191 349.18 446.574 348.336C447.957 347.492 449.539 347.07 451.32 347.07ZM451.32 349.883C450.078 349.883 448.988 350.188 448.051 350.797C447.113 351.383 446.387 352.168 445.871 353.152C445.379 354.113 445.133 355.168 445.133 356.316C445.133 357.441 445.379 358.496 445.871 359.48C446.387 360.441 447.113 361.227 448.051 361.836C448.988 362.422 450.078 362.715 451.32 362.715C452.586 362.715 453.676 362.422 454.59 361.836C455.527 361.227 456.242 360.441 456.734 359.48C457.25 358.496 457.508 357.441 457.508 356.316C457.508 355.168 457.25 354.113 456.734 353.152C456.242 352.168 455.527 351.383 454.59 350.797C453.676 350.188 452.586 349.883 451.32 349.883ZM478.602 338.984C479.281 338.984 479.844 339.23 480.289 339.723C480.758 340.191 480.992 340.742 480.992 341.375C480.992 341.984 480.758 342.535 480.289 343.027C479.844 343.52 479.281 343.766 478.602 343.766C477.922 343.766 477.348 343.52 476.879 343.027C476.434 342.535 476.211 341.984 476.211 341.375C476.211 340.742 476.434 340.191 476.879 339.723C477.348 339.23 477.922 338.984 478.602 338.984ZM480.395 347.422V365H477.512V350.129H474.734V347.422H480.395ZM489.5 347.422V349.672C490.062 349.039 490.777 348.453 491.645 347.914C492.535 347.352 493.578 347.07 494.773 347.07C496.039 347.07 497.223 347.375 498.324 347.984C499.426 348.57 500.27 349.461 500.855 350.656C501.676 349.672 502.566 348.828 503.527 348.125C504.488 347.422 505.613 347.07 506.902 347.07C508.098 347.07 509.211 347.34 510.242 347.879C511.297 348.395 512.141 349.191 512.773 350.27C513.43 351.324 513.758 352.66 513.758 354.277V365H510.875L510.84 354.559C510.84 353.035 510.441 351.875 509.645 351.078C508.871 350.281 507.793 349.883 506.41 349.883C505.402 349.883 504.523 350.199 503.773 350.832C503.023 351.465 502.309 352.203 501.629 353.047V365H498.746L498.711 354.559C498.711 353.035 498.312 351.875 497.516 351.078C496.742 350.281 495.664 349.883 494.281 349.883C493.32 349.883 492.441 350.164 491.645 350.727C490.871 351.289 490.156 351.969 489.5 352.766V365H486.617V347.422H489.5ZM526.449 347.07C527.457 347.07 528.477 347.316 529.508 347.809C530.562 348.277 531.465 348.934 532.215 349.777V347.422H535.098V365H532.215V362.012C531.605 362.949 530.773 363.77 529.719 364.473C528.688 365.176 527.504 365.527 526.168 365.527C524.668 365.527 523.297 365.152 522.055 364.402C520.812 363.629 519.816 362.562 519.066 361.203C518.34 359.844 517.977 358.273 517.977 356.492C517.977 354.547 518.34 352.871 519.066 351.465C519.816 350.059 520.836 348.98 522.125 348.23C523.414 347.457 524.855 347.07 526.449 347.07ZM526.977 349.883C525.711 349.883 524.633 350.199 523.742 350.832C522.852 351.465 522.16 352.285 521.668 353.293C521.199 354.277 520.965 355.344 520.965 356.492C520.965 357.617 521.199 358.66 521.668 359.621C522.137 360.559 522.793 361.309 523.637 361.871C524.504 362.434 525.5 362.715 526.625 362.715C527.703 362.715 528.664 362.434 529.508 361.871C530.352 361.309 531.02 360.535 531.512 359.551C532.004 358.543 532.238 357.418 532.215 356.176L532.18 352.801C531.453 351.887 530.668 351.172 529.824 350.656C529.004 350.141 528.055 349.883 526.977 349.883ZM548.316 347.07C549.324 347.07 550.344 347.316 551.375 347.809C552.43 348.277 553.332 348.934 554.082 349.777V347.422H556.965V364.648C556.965 366.734 556.543 368.469 555.699 369.852C554.855 371.234 553.73 372.266 552.324 372.945C550.918 373.625 549.383 373.965 547.719 373.965C546.641 373.965 545.715 373.836 544.941 373.578C544.191 373.344 543.547 373.039 543.008 372.664C542.469 372.312 541.977 371.973 541.531 371.645V368.551C541.883 368.809 542.34 369.137 542.902 369.535C543.488 369.957 544.18 370.332 544.977 370.66C545.797 370.988 546.711 371.152 547.719 371.152C548.867 371.152 549.922 370.941 550.883 370.52C551.844 370.098 552.617 369.477 553.203 368.656C553.789 367.836 554.082 366.852 554.082 365.703V362.012C553.473 362.949 552.641 363.77 551.586 364.473C550.555 365.176 549.371 365.527 548.035 365.527C546.535 365.527 545.164 365.152 543.922 364.402C542.68 363.629 541.684 362.562 540.934 361.203C540.207 359.844 539.844 358.273 539.844 356.492C539.844 354.547 540.207 352.871 540.934 351.465C541.684 350.059 542.703 348.98 543.992 348.23C545.281 347.457 546.723 347.07 548.316 347.07ZM548.844 349.918C547.578 349.918 546.5 350.234 545.609 350.867C544.719 351.477 544.027 352.285 543.535 353.293C543.066 354.277 542.832 355.344 542.832 356.492C542.832 357.617 543.066 358.648 543.535 359.586C544.004 360.523 544.66 361.273 545.504 361.836C546.371 362.398 547.367 362.68 548.492 362.68C549.57 362.68 550.531 362.398 551.375 361.836C552.219 361.273 552.887 360.5 553.379 359.516C553.871 358.531 554.105 357.418 554.082 356.176L554.047 352.801C553.32 351.887 552.535 351.184 551.691 350.691C550.871 350.176 549.922 349.918 548.844 349.918ZM570.184 347.07C571.988 347.07 573.488 347.445 574.684 348.195C575.879 348.945 576.77 349.965 577.355 351.254C577.965 352.543 578.27 353.996 578.27 355.613V357.336H564.77C564.91 358.32 565.25 359.223 565.789 360.043C566.328 360.863 567.031 361.52 567.898 362.012C568.766 362.48 569.762 362.715 570.887 362.715C572.152 362.715 573.336 362.398 574.438 361.766C575.539 361.109 576.465 360.395 577.215 359.621L577.18 362.75C576.852 363.148 576.359 363.57 575.703 364.016C575.07 364.438 574.332 364.789 573.488 365.07C572.668 365.375 571.801 365.527 570.887 365.527C569.105 365.527 567.523 365.105 566.141 364.262C564.758 363.418 563.668 362.305 562.871 360.922C562.098 359.516 561.711 357.98 561.711 356.316C561.711 354.652 562.074 353.117 562.801 351.711C563.527 350.305 564.523 349.18 565.789 348.336C567.078 347.492 568.543 347.07 570.184 347.07ZM570.184 349.883C568.73 349.883 567.535 350.375 566.598 351.359C565.66 352.32 565.074 353.492 564.84 354.875H575.422C575.305 353.727 574.977 352.789 574.438 352.062C573.922 351.336 573.289 350.797 572.539 350.445C571.789 350.07 571.004 349.883 570.184 349.883ZM595.848 346.648C596.527 346.648 597.102 346.895 597.57 347.387C598.062 347.855 598.309 348.43 598.309 349.109C598.309 349.766 598.062 350.34 597.57 350.832C597.102 351.324 596.527 351.57 595.848 351.57C595.168 351.57 594.582 351.324 594.09 350.832C593.621 350.34 593.387 349.766 593.387 349.109C593.387 348.43 593.621 347.855 594.09 347.387C594.582 346.895 595.168 346.648 595.848 346.648ZM595.848 360.711C596.527 360.711 597.102 360.957 597.57 361.449C598.062 361.918 598.309 362.492 598.309 363.172C598.309 363.828 598.062 364.402 597.57 364.895C597.102 365.387 596.527 365.633 595.848 365.633C595.168 365.633 594.582 365.387 594.09 364.895C593.621 364.402 593.387 363.828 593.387 363.172C593.387 362.492 593.621 361.918 594.09 361.449C594.582 360.957 595.168 360.711 595.848 360.711ZM612.477 340.742C611.773 341.539 611.094 342.547 610.438 343.766C609.805 344.984 609.242 346.32 608.75 347.773C608.258 349.227 607.871 350.703 607.59 352.203C607.309 353.68 607.168 355.074 607.168 356.387C607.168 357.793 607.309 359.246 607.59 360.746C607.871 362.246 608.258 363.699 608.75 365.105C609.242 366.535 609.805 367.848 610.438 369.043C611.094 370.238 611.773 371.234 612.477 372.031H609.277C608.316 371.023 607.402 369.699 606.535 368.059C605.668 366.441 604.953 364.625 604.391 362.609C603.852 360.594 603.582 358.52 603.582 356.387C603.582 354.863 603.734 353.34 604.039 351.816C604.367 350.293 604.801 348.828 605.34 347.422C605.879 346.016 606.488 344.738 607.168 343.59C607.848 342.441 608.551 341.492 609.277 340.742H612.477Z" fill="white"/>
</svg>
